<?xml version="1.0" encoding="UTF-8"?>
<svg id="_图层_2" data-name="图层 2" xmlns="http://www.w3.org/2000/svg" viewBox="0 0 566.93 161.57">
  <defs>
    <style>
      .cls-1 {
        fill: #094;
      }
    </style>
  </defs>
  <g id="_图层_1-2" data-name="图层 1">
    <path class="cls-1" d="m543.3,32.07h-94.36v98.28h94.36V32.07Zm-76.58,12.88h58.94v8.96h-58.94v-8.96Zm65.8,72.24c-1.82,1.68-5.04,2.52-9.66,2.66h-10.22c-3.5,0-6.16-1.12-7.98-3.08-1.96-2.24-2.8-4.9-2.8-8.12v-30.8h-13.3c-1.26,11.48-3.92,20.3-8.12,26.74-4.76,7.28-12.18,12.88-21.98,17.08l-4.76-8.12c8.68-3.36,14.98-8.12,19.04-14.28,3.36-5.32,5.6-12.46,6.72-21.42h-20.72v-8.96h74.76v8.96h-22.4v28.7c0,3.36,1.4,5.04,4.48,5.04h5.32c1.96,0,3.36-.42,4.48-1.26,1.68-.98,2.66-5.88,3.22-14.56l8.4,2.8c-1.12,10.36-2.52,16.66-4.48,18.62ZM0,0v161.57h566.93V0H0Zm295.78,29.27h30.24v-13.02h9.94v13.02h40.46v-13.02h9.94v13.02h30.24v9.52h-30.24v12.32h-9.94v-12.32h-40.46v12.32h-9.94v-12.32h-30.24v-9.52Zm-131.74-10.36c8.96,6.58,16.66,13.16,22.82,19.88l-7.14,7.14c-5.6-6.3-13.16-13.02-22.82-20.02l7.14-7Zm-140,0c8.96,6.58,16.66,13.16,22.82,19.88l-7.14,7.14c-5.6-6.3-13.16-13.02-22.82-20.02l7.14-7Zm-3.36,33.46c9.52,6.72,17.5,13.3,23.94,20.02l-7.14,7.28c-5.88-6.44-13.86-13.3-23.94-20.44l7.14-6.86Zm4.06,91l-9.8-4.34c8.12-16.1,15.12-32.62,21-49.42l9.24,3.64c-6.16,17.64-13.02,34.44-20.44,50.12Zm20.72-10.78c7.84-9.1,14.42-20.02,20.02-32.76l8.4,4.06c-5.74,13.3-12.46,24.78-20.3,34.58l-8.12-5.88Zm52.5-1.4c0,8.4-4.06,12.6-12.18,12.6h-14.84l-2.24-9.66c4.76.42,9.24.7,13.58.7,3.64,0,5.6-2.1,5.6-6.3v-37.8h-37.94v-9.8h37.94v-16.94h-22.26v-9.1h51.8v9.1h-19.46v16.94h35.56v9.8h-35.56v40.46Zm30.66,6.16c-5.04-9.8-11.76-20.86-20.3-32.9l7.84-4.76c8.82,12.18,15.68,22.82,20.44,32.06l-7.98,5.6Zm5.6-74.34c-17.78-8.96-32.06-20.86-42.98-35.42-11.48,15.12-25.06,27.44-40.88,36.82l-5.74-8.4c17.22-9.94,31.36-22.68,42.28-38.36h8.96c9.94,14.84,24.64,27.16,44.1,36.96l-5.74,8.4Zm26.46-10.64c9.52,6.72,17.5,13.3,23.94,20.02l-7.14,7.28c-5.88-6.44-13.86-13.3-23.94-20.44l7.14-6.86Zm4.06,91l-9.8-4.34c8.12-16.1,15.12-32.62,21-49.42l9.24,3.64c-6.16,17.64-13.02,34.44-20.44,50.12Zm20.72-10.78c7.84-9.1,14.42-20.02,20.02-32.76l8.4,4.06c-5.74,13.3-12.46,24.78-20.3,34.58l-8.12-5.88Zm52.5-1.4c0,8.4-4.06,12.6-12.18,12.6h-14.84l-2.24-9.66c4.76.42,9.24.7,13.58.7,3.64,0,5.6-2.1,5.6-6.3v-37.8h-37.94v-9.8h37.94v-16.94h-22.26v-9.1h51.8v9.1h-19.46v16.94h35.56v9.8h-35.56v40.46Zm30.66,6.16c-5.04-9.8-11.76-20.86-20.3-32.9l7.84-4.76c8.82,12.18,15.68,22.82,20.44,32.06l-7.98,5.6Zm5.6-74.34c-17.78-8.96-32.06-20.86-42.98-35.42-11.48,15.12-25.06,27.44-40.88,36.82l-5.74-8.4c17.22-9.94,31.36-22.68,42.28-38.36h8.96c9.94,14.84,24.64,27.16,44.1,36.96l-5.74,8.4Zm52.36,82.32h-10.36v-54.04c-6.16,6.72-12.88,13.16-20.3,19.18l-2.94-10.08c16.24-13.72,28-29.26,35.42-46.76l9.1,4.2c-3.08,7-6.72,13.72-10.92,20.16v67.34Zm85.82-6.44c-2.8,2.52-7.28,3.92-13.3,3.92h-25.34c-8.82,0-13.16-4.76-13.16-14v-21.98c-6.16,2.94-12.32,5.74-18.62,8.26l-5.6-8.4c8.68-3.5,16.66-7.14,24.22-10.92v-40.88h10.22v35.28c15.26-8.96,27.72-18.76,37.52-29.4l7,7.14c-12.6,12.88-27.44,23.94-44.52,33.46v25.34c0,4.62,1.82,7,5.74,7h20.72c3.64,0,6.3-1.12,7.98-3.08,1.96-2.38,3.22-9.38,3.92-20.86l9.66,2.94c-1.12,14.28-3.36,23.1-6.44,26.18Zm140.98,6.02h-10.08v-5.6h-94.36v5.6h-10.08V22.83h114.52v122.08Z"/>
  </g>
</svg>