<?xml version="1.0" encoding="UTF-8"?>
<svg id="_图层_2" data-name="图层 2" xmlns="http://www.w3.org/2000/svg" viewBox="0 0 161.57 161.57">
  <defs>
    <style>
      .cls-1 {
        fill: #094;
      }
    </style>
  </defs>
  <g id="_图层_1-2" data-name="图层 1">
    <path class="cls-1" d="m0,0v161.57h161.57V0H0Zm33.84,23.39c8.32,6.11,15.47,12.22,21.19,18.46l-6.63,6.63c-5.2-5.85-12.22-12.09-21.19-18.59l6.63-6.5Zm-3.12,31.07c8.84,6.24,16.25,12.35,22.23,18.59l-6.63,6.76c-5.46-5.98-12.87-12.35-22.23-18.98l6.63-6.37Zm3.77,84.5l-9.1-4.03c7.54-14.95,14.04-30.29,19.5-45.89l8.58,3.38c-5.72,16.38-12.09,31.98-18.98,46.54Zm19.24-10.01c7.28-8.45,13.39-18.59,18.59-30.42l7.8,3.77c-5.33,12.35-11.57,23.01-18.85,32.11l-7.54-5.46Zm48.75-1.3c0,7.8-3.77,11.7-11.31,11.7h-13.78l-2.08-8.97c4.42.39,8.58.65,12.61.65,3.38,0,5.2-1.95,5.2-5.85v-35.1h-35.23v-9.1h35.23v-15.73h-20.67v-8.45h48.1v8.45h-18.07v15.73h33.02v9.1h-33.02v37.57Zm28.47,5.72c-4.68-9.1-10.92-19.37-18.85-30.55l7.28-4.42c8.19,11.31,14.56,21.19,18.98,29.77l-7.41,5.2Zm5.2-69.03c-16.51-8.32-29.77-19.37-39.91-32.89-10.66,14.04-23.27,25.48-37.96,34.19l-5.33-7.8c15.99-9.23,29.12-21.06,39.26-35.62h8.32c9.23,13.78,22.88,25.22,40.95,34.32l-5.33,7.8Z"/>
  </g>
</svg>